<?xml version="1.0" encoding="utf-8"?>
<!-- Generator: Adobe Illustrator 22.1.0, SVG Export Plug-In . SVG Version: 6.00 Build 0)  -->
<svg version="1.1" id="Camada_1" xmlns="http://www.w3.org/2000/svg" xmlns:xlink="http://www.w3.org/1999/xlink" x="0px" y="0px"
	 viewBox="0 0 24 24" style="enable-background:new 0 0 24 24;" xml:space="preserve">
<style type="text/css">
	.st0{fill:#FFFFFF;}
</style>
<path class="st0" d="M19,14v4h-2v-4H19 M7,14v4H6c-0.6,0-1-0.5-1-1v-3H7 M12,1c-5,0-9,4-9,9v7c0,1.7,1.3,3,3,3h3v-8H5v-2
	c0-3.9,3.1-7,7-7s7,3.1,7,7v2h-4v8h4v1h-7v2h6c1.7,0,3-1.3,3-3V10C21,5,17,1,12,1z"/>
</svg>
