<?xml version="1.0" encoding="utf-8"?>
<!-- Generator: Adobe Illustrator 22.1.0, SVG Export Plug-In . SVG Version: 6.00 Build 0)  -->
<svg version="1.1" id="Camada_1" xmlns="http://www.w3.org/2000/svg" xmlns:xlink="http://www.w3.org/1999/xlink" x="0px" y="0px"
	 viewBox="0 0 24 24" style="enable-background:new 0 0 24 24;" xml:space="preserve">
<style type="text/css">
	.st0{fill:#FFFFFF;}
</style>
<g>
	<g>
		<path class="st0" d="M18.2,12.4L15,10.8c1.3-1,2.1-2.6,2.1-4.3c0-3-2.5-5.5-5.5-5.5S6.1,3.5,6.1,6.5c0,2.1,1.2,4,3,4.9v3.3
			c-2.2-0.5-2-0.4-2.3-0.4c-0.5,0-1,0.2-1.4,0.6L4,16.2l5.1,5.1c0.4,0.4,1,0.7,1.6,0.7H17c1,0,1.8-0.7,2-1.7l0.8-4.7
			C20,14.3,19.4,13,18.2,12.4z M17.8,15.3L17,20h-6.3c-0.1,0-0.2,0-0.2-0.1l-3.7-3.7l4.3,0.9V6.5c0-0.3,0.2-0.5,0.5-0.5
			s0.5,0.2,0.5,0.5v6h1.8l3.5,1.7C17.7,14.4,17.9,14.9,17.8,15.3z M8.1,6.5C8.1,4.6,9.6,3,11.6,3s3.5,1.6,3.5,3.5
			c0,0.9-0.4,1.8-1,2.4V6.5c0-1.4-1.1-2.5-2.5-2.5S9.1,5.1,9.1,6.5v2.4C8.4,8.3,8.1,7.4,8.1,6.5z"/>
	</g>
</g>
</svg>
